HIERARCHY
ROOT pelvis
{
  OFFSET 0 100 0
  CHANNELS 6 Xposition Yposition Zposition Zrotation Xrotation Yrotation
  JOINT pelvis_right_femur
  {
    OFFSET -10.78128 -3.44521 -0.5502486
    CHANNELS 3 Zrotation Xrotation Yrotation
    JOINT right_femur_tibia
    {
      OFFSET -0.8047443 -44.0398 -0.1307829
      CHANNELS 3 Zrotation Xrotation Yrotation
      JOINT right_tibia_foot
      {
        OFFSET 3.006224 -47.83518 -5
        CHANNELS 3 Zrotation Xrotation Yrotation
        End Site
        {
          OFFSET 0 -5 15
        }
      }
    }
  }
  JOINT pelvis_left_femur
  {
    OFFSET 10.78128 -3.44521 -0.5502486
    CHANNELS 3 Zrotation Xrotation Yrotation
    JOINT left_femur_tibia
    {
      OFFSET 0.8047443 -44.0398 -0.1307829
      CHANNELS 3 Zrotation Xrotation Yrotation
      JOINT left_tibia_foot
      {
        OFFSET -4.370144 -48.10324 -4.275266
        CHANNELS 3 Zrotation Xrotation Yrotation
        End Site
        {
          OFFSET 0 -5 15
        }
      }
    }
  }
  JOINT pelvis_spine1
  {
    OFFSET 0 6.468898 -3.129235
    CHANNELS 3 Zrotation Xrotation Yrotation
    JOINT spine1
    {
      OFFSET 0 23.15396 4.99043
      CHANNELS 3 Zrotation Xrotation Yrotation
      JOINT spine2
      {
        OFFSET 0 20.79997 -5.064912
        CHANNELS 3 Zrotation Xrotation Yrotation
        JOINT neck
        {
          OFFSET 0 14.38658 9.616178
          CHANNELS 3 Zrotation Xrotation Yrotation
          End Site
          {
            OFFSET 0 20 0
          }
        }
      }
      JOINT right_manubrium
      {
        OFFSET -5.722621 16.35077 3.967754
        CHANNELS 3 Zrotation Xrotation Yrotation
        JOINT right_clavicle
        {
          OFFSET -13.16364 1.694482 -4.693211
          CHANNELS 3 Zrotation Xrotation Yrotation
          JOINT right_humerus
          {
            OFFSET -28.5034 -0.3100689 -2.792744
            CHANNELS 3 Zrotation Xrotation Yrotation
            JOINT right_radius
            {
              OFFSET -25.15693 0.02248979 -1.271978
              CHANNELS 3 Zrotation Xrotation Yrotation
              End Site
              {
                OFFSET -15 0 0
              }
            }
          }
        }
      }
      JOINT left_manubrium
      {
        OFFSET 5.722621 16.35077 3.967754
        CHANNELS 3 Zrotation Xrotation Yrotation
        JOINT left_clavicle
        {
          OFFSET 13.16364 1.694482 -4.693211
          CHANNELS 3 Zrotation Xrotation Yrotation
          JOINT left_humerus
          {
            OFFSET 29.39168 -1.063119 -2.237045
            CHANNELS 3 Zrotation Xrotation Yrotation
            JOINT left_radius
            {
              OFFSET 24.59957 -0.9528479 0.9047498
              CHANNELS 3 Zrotation Xrotation Yrotation
              End Site
              {
                OFFSET 15 -0 -0
              }
            }
          }
        }
      }
    }
  }
}
MOTION
Frames: 23
Frame Time: 0.0416666666667
0 103.5113 0 -0.02579638 -1.500752 0.2334986 1.361917 -14.48092 6.113687 -0 39.08048 -0 -7.958266 -13.71327 -6.639652 -4.269473 6.965291 -15.56665 -0 9.77452 -0 11.38684 -20.58416 18.46423 -1.055387 -2.879039 4.569863 -2.781568 11.63143 -5.085143 4.857622 21.53163 4.471601 5.366542 -22.83915 7.992372 11.39841 -17.28383 13.18494 78.42734 22.9483 -15.97351 -0 0 22.28079 -16.06517 9.964417 10.48304 10.81572 -24.61167 -3.927998 -97.41534 21.29622 19.11111 0 0 -8.555558 12.28005 12.52501 -6.462581
0.285498 103.7546 1.580196 -0.03186353 -1.548084 0.06967729 2.106438 -18.07296 5.352573 -0 40.3831 -0 -7.891029 -12.79204 -7.000789 -4.076704 8.287607 -15.52144 -0 8.600395 -0 10.72702 -21.11548 18.03636 -1.453877 -1.86922 4.321904 -2.438759 11.77511 -5.515362 4.858338 21.21572 4.717418 5.632895 -23.37902 8.151362 11.3271 -17.29558 12.91127 78.49447 23.1293 -16.23671 -0 0 21.52088 -15.98044 10.14216 10.38536 10.73292 -24.94972 -3.689735 -97.03523 21.2669 18.57456 0 0 -9.24669 12.59124 11.97466 -6.321822
0.590707 103.7225 3.39096 -0.03679486 -1.57293 -0.0175931 2.590801 -21.38963 4.481349 -0 38.85384 -0 -7.707924 -11.50837 -7.027393 -4.141056 9.972998 -15.3091 -0 7.757434 -0 10.03991 -21.64166 17.67258 -1.814401 -0.9778678 4.240389 -1.840497 11.7777 -5.904643 4.744144 20.84669 4.992036 5.817262 -23.93006 8.267382 11.47712 -17.24307 12.82345 78.74931 23.42078 -16.65722 -0 0 20.46473 -15.70834 10.37927 10.16121 10.59078 -25.13805 -3.720434 -96.93295 21.33781 18.08152 0 0 -9.905245 12.71229 11.55441 -6.131331
0.9023128 103.5545 5.514099 -0.04118834 -1.588029 -0.07209865 2.827818 -24.2257 3.786442 -0 35.01028 -0 -7.473376 -9.943402 -6.559587 -4.324417 11.80672 -15.06399 -0 7.37329 -0 9.363625 -22.27834 17.32428 -2.260157 -0.01644666 4.128284 -1.187611 11.97759 -6.404146 4.813632 20.43039 5.22488 6.128507 -24.6414 8.495638 11.21418 -17.12432 12.6634 78.90822 23.79988 -17.27613 -0 0 19.06932 -15.4698 10.56038 9.885846 10.47224 -24.87742 -4.009357 -97.02871 21.49513 17.84062 0 0 -10.39302 12.646 11.24038 -5.885002
1.099768 103.1009 7.933744 -0.04050321 -1.536473 0.1028146 2.970342 -26.57665 3.363961 -0 29.7477 -0 -7.297914 -8.227759 -5.705088 -4.312521 13.38036 -14.84395 -0 6.935395 -0 8.700994 -23.16621 16.81579 -2.422828 0.75313 4.022936 -0.6067389 11.86593 -6.833124 4.705458 20.13145 5.478619 6.321946 -25.31545 8.618552 10.83764 -16.76929 12.37717 79.38431 24.2063 -18.16036 -0 0 17.48486 -15.24052 10.70162 9.606366 10.4591 -25.27696 -3.939448 -96.8118 21.53221 16.86989 0 0 -11.46775 12.91918 10.90469 -5.780959
1.302585 102.4924 10.72261 -0.03444512 -1.407698 0.5435632 2.887978 -28.68514 3.191918 -0 24.18419 -0 -7.332605 -6.59239 -4.746759 -4.368102 15.17156 -14.6037 -0 7.048619 -0 7.948097 -23.9947 16.17877 -2.475009 1.563544 3.808338 -0.01871936 11.92199 -7.335599 4.660676 19.88895 5.598935 6.531756 -26.02949 8.625975 10.3746 -16.46821 12.09319 79.9528 24.632 -19.02996 -0 0 15.88859 -15.07622 10.77208 9.397292 10.36644 -25.39139 -3.956661 -96.70936 21.64351 16.26217 0 0 -12.16154 13.01181 10.65757 -5.569165
1.426847 101.7846 13.91191 -0.02959505 -1.291665 0.9407188 2.803027 -30.20615 2.897401 -0 19.35237 -0 -7.595147 -5.405655 -4.098164 -4.281642 16.8065 -14.43459 -0 7.412254 -0 7.043648 -24.71551 15.37529 -2.627689 2.335855 3.523258 0.3228545 11.92031 -7.925642 4.57546 19.55131 5.698299 6.739077 -26.55119 8.491124 9.631028 -16.28544 11.92859 80.42574 25.12819 -19.78416 -0 0 14.33562 -15.0052 10.79214 9.273406 10.33424 -25.45986 -4.178877 -96.40407 21.83716 15.81203 0 0 -12.44551 12.97049 10.4563 -5.227546
1.460562 100.9328 17.56302 -0.0209926 -1.101418 1.594091 2.784308 -31.22948 2.420223 -0 16.24911 -0 -8.045081 -4.51357 -3.983701 -4.405471 18.43731 -13.9915 -0 8.391115 -0 5.930613 -25.07873 14.50932 -2.528571 2.803804 3.352769 0.7608742 11.93481 -8.327719 4.35492 19.19332 5.888914 6.872399 -27.02439 8.3604 9.254299 -15.92203 11.66877 81.32618 25.61461 -20.72997 -0 0 12.75987 -14.78034 10.8827 9.156122 10.14655 -25.41952 -4.132003 -96.16095 21.95015 15.62845 0 0 -12.4597 12.82777 10.27596 -4.752047
1.441757 100.3078 21.66203 -0.01345932 -0.904768 2.27002 2.842556 -31.38456 2.043539 -0 15.5453 -0 -8.754908 -3.80782 -4.220884 -4.18901 19.86573 -13.45087 -0 10.28534 -0 4.389246 -24.69558 13.31876 -2.384981 3.088136 2.910674 1.22422 11.87982 -9.00917 4.058827 18.80083 6.219945 7.004099 -27.59876 8.366957 9.05065 -15.86544 11.28489 82.10272 26.16034 -21.52966 -0 0 11.28421 -14.52436 11.02117 9.059837 9.76569 -25.21603 -4.056209 -95.79898 22.00454 15.79828 0 0 -12.01736 12.58012 10.09554 -4.117376
1.279274 100.006 26.27708 -0.005195358 -0.6293088 3.216887 3.068065 -30.13533 1.979639 -0 17.12794 -0 -9.626709 -3.424496 -4.425917 -3.787642 20.6553 -12.96158 -0 13.5615 -0 2.412738 -23.04503 11.89082 -2.22024 3.265979 2.435724 1.591442 11.954 -9.649867 3.800624 18.29499 6.500692 7.120206 -28.1457 8.347697 8.917315 -15.81565 10.96834 82.96098 26.70426 -22.18118 -0 0 9.900936 -14.27038 11.19485 9.009878 9.329488 -24.88551 -3.914881 -95.35744 21.99542 16.24051 0 0 -11.24423 12.2693 9.912465 -3.376386
1.028248 100.0525 32.16664 -0.0102131 -0.7535469 2.790508 3.934613 -28.00971 2.546634 -0 19.42748 -0 -10.54792 -3.802724 -4.437885 -3.9522 20.75182 -12.77083 -0 19.54455 -0 0.06701697 -19.59433 10.51137 -2.113846 2.448336 2.45511 1.730859 12.24092 -9.82127 3.442107 18.10011 6.747284 7.108478 -28.32993 8.205788 8.816345 -15.5614 10.71302 83.96878 27.23512 -22.81863 -0 0 8.517396 -14.01034 11.40593 8.976575 8.748841 -23.90354 -3.589534 -95.18183 21.88545 17.36273 0 0 -10.06005 11.85469 9.741377 -2.537155
0.966328 100.449 38.07476 -0.01816658 -0.916789 2.230579 4.444772 -25.38826 3.129702 -0 21.22737 -0 -11.35908 -4.816683 -4.528806 -4.623235 19.64063 -12.00703 -0 27.50857 -0 -2.246188 -14.35177 9.310256 -1.740668 1.610185 2.610661 1.72418 12.42176 -9.711427 3.015203 18.07122 6.926412 6.972719 -28.22564 7.926954 8.567858 -15.39214 10.92737 84.77104 27.85258 -22.96352 -0 0 7.364346 -13.80306 11.63557 9.016131 8.239842 -22.91657 -3.504435 -94.965 21.82619 18.42185 0 0 -9.017622 11.26552 9.581176 -1.748889
0.8783289 101.0428 44.0913 -0.03631836 -1.218531 1.19532 4.920746 -21.73861 3.469712 -0 21.81864 -0 -12.03681 -6.569095 -4.427147 -5.349668 16.5029 -10.89916 -0 37.44597 -0 -4.019545 -8.377012 8.603299 -1.42657 0.7931141 3.210857 1.521646 12.57485 -9.212297 2.635814 18.32577 6.966541 6.790458 -27.83953 7.510674 8.470044 -15.44961 11.42681 85.28982 28.53108 -22.47906 -0 0 6.653054 -13.70654 11.87295 9.144775 7.578078 -22.16499 -3.408628 -94.5748 21.7978 19.25005 0 0 -8.163216 10.60644 9.454124 -1.019683
0.7948273 101.7996 49.73839 -0.06037273 -1.529339 0.1300515 5.146079 -17.41719 3.515561 -0 21.05125 -0 -12.3971 -8.499889 -4.233547 -5.696657 11.05015 -9.708453 -0 47.29363 -0 -5.040814 -3.212484 8.80527 -1.20337 0.1400764 4.225736 1.271775 12.54786 -8.448274 2.2866 18.78306 6.922055 6.5836 -27.29692 7.02307 8.423041 -15.49933 12.00801 85.38798 29.18829 -21.56785 -0 0 6.550356 -13.88538 12.08241 9.480662 6.881413 -22.19168 -3.272189 -93.79314 21.83259 19.24632 0 0 -8.040242 10.01746 9.380045 -0.4971798
0.7552115 102.6779 54.89189 -0.07467422 -1.698357 -0.4454697 5.053407 -12.8592 3.418918 -0 19.07695 -0 -12.33611 -10.15818 -3.916738 -4.786262 3.973094 -8.62669 -0 55.26426 -0 -5.88278 0.2850071 9.489541 -0.9112247 -0.4311492 5.431566 1.138853 12.46545 -7.568847 1.873162 19.34113 6.796095 6.301586 -26.69797 6.38808 8.187455 -15.97963 12.51265 84.78275 29.84882 -19.94973 -0 0 7.098565 -14.42965 12.20053 10.05625 6.603322 -21.93405 -2.946766 -93.11699 21.82959 19.33165 0 0 -7.963184 9.478855 9.276052 0.1289127
0.7204269 103.8204 60.05187 -0.09079451 -1.883936 -1.076423 4.853048 -7.887836 3.16554 -0 16.31368 -0 -11.85322 -11.39235 -3.473122 -3.811607 -4.733129 -7.823763 -0 60.69096 -0 -5.156028 0.490777 10.50315 -0.8135577 -0.883627 6.626244 1.023846 12.40188 -6.655075 1.501861 19.9323 6.624445 6.033006 -26.15094 5.752507 8.041065 -16.29187 12.82392 83.99662 30.3721 -18.25466 -0 0 7.921554 -15.21326 12.24787 10.76955 6.318888 -21.94447 -2.550421 -92.37525 21.80339 19.14586 0 0 -8.281018 8.960203 9.171889 0.6008014
0.6757469 104.6842 64.9213 -0.09448127 -1.947023 -1.288339 4.582469 -3.114513 2.733073 -0 13.27073 -0 -11.10553 -12.43087 -3.009983 -2.413795 -12.4805 -7.120135 -0 60.32017 -0 -3.802888 -1.125232 11.82658 -0.8263022 -1.047246 7.552622 0.7624346 12.01919 -5.734496 1.222495 20.48664 6.4376 5.795127 -25.53738 5.193123 7.6867 -17.20703 13.20362 82.54528 30.81036 -15.66736 -0 0 9.522517 -16.3655 12.16434 11.74776 6.113925 -21.91346 -2.243167 -91.7367 21.76657 18.91763 0 0 -8.752791 8.40606 9.097005 1.041588
0.6596004 104.9108 69.69382 -0.07961977 -1.824988 -0.8665826 4.359042 1.212278 2.205195 -0 10.55143 -0 -10.26015 -13.5404 -2.659183 -0.5722195 -19.19129 -5.677277 -0 53.88674 -0 -2.825693 -2.7821 13.82649 -0.9336492 -1.002255 7.96665 0.4725738 11.5008 -5.038686 0.9961624 20.68599 6.24957 5.549133 -25.01448 4.706057 7.056161 -17.88315 13.41707 81.24506 31.08905 -13.10805 -0 0 11.34313 -17.57043 12.01887 12.78365 6.138132 -21.85297 -2.031476 -91.11621 21.71666 18.53434 0 0 -9.423915 7.87561 9.020625 1.439876
0.7508972 104.7527 74.53136 -0.07000559 -1.742604 -0.5848844 4.211174 5.238321 1.685453 -0 8.493644 -0 -9.40727 -14.78838 -2.46045 1.501102 -23.73534 -4.088804 -0 45.57971 -0 -2.316004 -3.326952 15.63101 -1.028693 -0.7108442 8.146975 0.132452 10.97387 -4.406476 0.7522939 20.76392 6.132514 5.294601 -24.5751 4.319847 6.383148 -18.86976 13.69495 79.55135 31.23279 -10.16565 -0 0 13.35079 -18.89612 11.79916 13.80798 6.144443 -21.72515 -1.992251 -90.66865 21.60879 18.09973 0 0 -10.04578 7.38357 8.888606 1.868813
0.9633524 104.0146 79.47471 -0.06169703 -1.662334 -0.3119552 4.111905 8.879917 1.256449 -0 7.373629 -0 -8.576466 -16.18267 -2.407375 3.274986 -26.7486 -2.435609 -0 35.33178 -0 -2.261097 -3.078182 16.87695 -1.002757 -0.5011697 8.166951 -0.2234408 10.53402 -3.878172 0.4582836 20.7431 6.092536 5.004576 -24.15418 4.01521 5.695363 -19.92013 13.90364 77.8008 31.19001 -7.236204 -0 0 15.45967 -20.23902 11.52078 14.79203 6.103677 -21.40502 -1.998246 -90.38521 21.45689 17.82535 0 0 -10.49168 6.918941 8.727499 2.311919
1.419887 102.9011 84.6262 -0.05430642 -1.585816 -0.05219857 3.938801 12.05166 0.9821935 -0 7.420463 -0 -7.709977 -17.4197 -2.440544 4.185352 -28.6359 -1.187696 -0 25.45878 -0 -2.192905 -3.007665 17.18738 -0.9945784 -0.2096781 7.909632 -0.5778261 10.20363 -3.767847 0.2093977 20.55656 6.136537 4.755897 -23.83635 3.872412 5.156109 -20.93048 13.91342 76.23561 30.93148 -4.617879 -0 0 17.59909 -21.57661 11.18788 15.71383 5.770995 -21.0304 -2.186543 -90.16659 21.31985 17.84273 0 0 -10.50225 6.46124 8.54394 2.842816
2.066727 101.8706 89.89959 -0.05128108 -1.566118 0.01277399 3.579001 14.62689 0.8829196 -0 8.839911 -0 -6.717078 -17.9114 -2.476143 3.965546 -29.4891 -1.236847 -0 18.39093 -0 -1.509586 -4.203383 16.64949 -0.9797081 0.128937 7.779958 -0.8827281 9.980137 -3.736011 0.04710325 20.45554 6.21255 4.599444 -23.54949 3.831713 4.807587 -21.84354 13.82619 74.87633 30.51764 -2.570025 -0 0 19.48532 -22.83089 10.83075 16.53057 5.179229 -20.70457 -2.388985 -90.04157 21.19628 18.03538 0 0 -10.23679 5.955447 8.364315 3.449847
2.910553 101.0132 95.91468 -0.06084052 -1.707568 -0.4747221 2.875003 16.78221 1.109577 -0 11.90575 -0 -5.534684 -17.02921 -2.453735 3.180014 -29.89833 -2.26574 -0 15.17345 -0 -0.8776892 -5.125812 16.0207 -1.017059 0.01439161 7.919056 -1.06125 9.897118 -3.669226 0.01469306 20.37729 6.267082 4.559367 -23.26253 3.837028 4.583748 -22.17988 13.43844 74.30021 30.07851 -1.622406 -0 0 20.95394 -23.87947 10.49592 17.21026 4.562272 -20.18589 -2.366374 -90.14688 21.0608 18.54804 0 0 -9.738248 5.339147 8.159687 4.197987
